<svg id="Logo" xmlns="http://www.w3.org/2000/svg" width="192.381" height="34.921" viewBox="0 0 192.381 34.921">
  <path id="Path_12" data-name="Path 12" d="M5.992,0a20.456,20.456,0,1,0,28.93,0L32.028,2.893a16.365,16.365,0,1,1-23.144,0Z" transform="translate(0)" fill="#fe793a"/>
  <path id="Path_13" data-name="Path 13" d="M24,14.99a9.57,9.57,0,1,0,13.534,0l-6.767,6.767Z" transform="translate(-10.312 -7.292)" fill="#121212"/>
  <path id="Path_14" data-name="Path 14" d="M110.474,34.55a8.21,8.21,0,0,1-6.075-2.228,8.351,8.351,0,0,1-2.2-6.133V14.762a1.1,1.1,0,0,1,.232-.752.889.889,0,0,1,.694-.289.8.8,0,0,1,.666.289,1.018,1.018,0,0,1,.26.752V26.276a6.789,6.789,0,0,0,1.678,4.918,7.641,7.641,0,0,0,9.662-.029,6.672,6.672,0,0,0,1.736-4.889V14.762a1.018,1.018,0,0,1,.26-.752.889.889,0,0,1,.694-.289.8.8,0,0,1,.666.289,1.1,1.1,0,0,1,.231.752V26.189a9.1,9.1,0,0,1-1.041,4.426,7.064,7.064,0,0,1-2.951,2.922A9.5,9.5,0,0,1,110.474,34.55Z" transform="translate(-49.715 -6.674)" fill="#595959"/>
  <path id="Path_15" data-name="Path 15" d="M144.881,34.55a.888.888,0,0,1-.694-.289,1.1,1.1,0,0,1-.232-.752V21.531a7.46,7.46,0,0,1,2.228-5.728,10.028,10.028,0,0,1,12.237,0,7.459,7.459,0,0,1,2.228,5.728V33.508q0,1.041-.926,1.041a.889.889,0,0,1-.694-.289,1.1,1.1,0,0,1-.231-.752V21.444a5.828,5.828,0,0,0-1.707-4.484,6.594,6.594,0,0,0-4.773-1.62,6.763,6.763,0,0,0-4.8,1.62,5.886,5.886,0,0,0-1.707,4.484V33.508a1.018,1.018,0,0,1-.26.752A.8.8,0,0,1,144.881,34.55Z" transform="translate(-70.027 -6.674)" fill="#595959"/>
  <path id="Path_16" data-name="Path 16" d="M188.443,34.55a.889.889,0,0,1-.694-.289,1.1,1.1,0,0,1-.232-.752V14.762q0-1.041.926-1.041a.8.8,0,0,1,.666.289,1.018,1.018,0,0,1,.26.752V33.508a1.018,1.018,0,0,1-.26.752A.8.8,0,0,1,188.443,34.55Z" transform="translate(-91.218 -6.674)" fill="#595959"/>
  <path id="Path_17" data-name="Path 17" d="M209.683,34.55a13.152,13.152,0,0,1-5.063-.955,7.979,7.979,0,0,1-3.472-2.575.844.844,0,0,1,.2-1.215.693.693,0,0,1,.4-.145,1.184,1.184,0,0,1,.839.492,7.463,7.463,0,0,0,2.951,2.025,11.558,11.558,0,0,0,4.137.694,7.327,7.327,0,0,0,4.137-.984,3.2,3.2,0,0,0,1.475-2.835,2.924,2.924,0,0,0-1.389-2.517,13.253,13.253,0,0,0-4.687-1.707,15.642,15.642,0,0,1-5.988-2.285,4.391,4.391,0,0,1-1.793-3.645,4.378,4.378,0,0,1,2-3.79,9.382,9.382,0,0,1,5.439-1.389,11.774,11.774,0,0,1,4.773.926,5.832,5.832,0,0,1,2.951,2.488,1.147,1.147,0,0,1,.145.492.785.785,0,0,1-.434.694.9.9,0,0,1-.405.087.982.982,0,0,1-.9-.463,4.948,4.948,0,0,0-2.372-1.909,9.577,9.577,0,0,0-3.761-.665,7.84,7.84,0,0,0-4.195.9,2.911,2.911,0,0,0-1.36,2.633,2.83,2.83,0,0,0,.55,1.765,4.454,4.454,0,0,0,1.823,1.273,22.5,22.5,0,0,0,3.558,1.07,16.45,16.45,0,0,1,6.046,2.4,4.373,4.373,0,0,1,1.881,3.645,4.713,4.713,0,0,1-2.025,4.021A9.022,9.022,0,0,1,209.683,34.55Z" transform="translate(-97.764 -6.674)" fill="#595959"/>
  <path id="Path_18" data-name="Path 18" d="M243.236,34.55a.888.888,0,0,1-.694-.289,1.1,1.1,0,0,1-.232-.752V14.762q0-1.041.926-1.041a.8.8,0,0,1,.665.289,1.018,1.018,0,0,1,.26.752V33.508a1.018,1.018,0,0,1-.26.752A.8.8,0,0,1,243.236,34.55Z" transform="translate(-117.872 -6.674)" fill="#595959"/>
  <path id="Path_19" data-name="Path 19" d="M265.722,34.55a10.7,10.7,0,0,1-5.294-1.273,8.979,8.979,0,0,1-3.5-3.645,11.715,11.715,0,0,1-1.215-5.468,11.666,11.666,0,0,1,1.244-5.5,8.747,8.747,0,0,1,3.5-3.645,10.511,10.511,0,0,1,5.294-1.3,11.966,11.966,0,0,1,4.513.839,7.419,7.419,0,0,1,3.241,2.285.891.891,0,0,1,.2.608.673.673,0,0,1-.318.608.772.772,0,0,1-.521.174,1.014,1.014,0,0,1-.81-.376,5.618,5.618,0,0,0-2.546-1.852,9.986,9.986,0,0,0-3.761-.665,8.577,8.577,0,0,0-4.368,1.07,7.1,7.1,0,0,0-2.806,3.067,10.371,10.371,0,0,0-.984,4.687,10.569,10.569,0,0,0,.955,4.658,7.135,7.135,0,0,0,2.807,3.038,8.766,8.766,0,0,0,4.368,1.041,9.284,9.284,0,0,0,3.53-.636,5.766,5.766,0,0,0,2.459-1.823,4.184,4.184,0,0,0,.9-2.633V26.767a1.644,1.644,0,0,0-.347-1.186,1.535,1.535,0,0,0-1.157-.347H266.59q-.984,0-.983-.781a.765.765,0,0,1,.231-.608,1.133,1.133,0,0,1,.752-.2h4.6a3.6,3.6,0,0,1,2.459.723,2.837,2.837,0,0,1,.81,2.228v1.1a5.7,5.7,0,0,1-1.158,3.472,8.033,8.033,0,0,1-3.153,2.488A10.679,10.679,0,0,1,265.722,34.55Z" transform="translate(-124.391 -6.674)" fill="#595959"/>
  <path id="Path_20" data-name="Path 20" d="M301.178,34.55a.889.889,0,0,1-.694-.289,1.1,1.1,0,0,1-.231-.752V14.762a1.1,1.1,0,0,1,.231-.752.889.889,0,0,1,.694-.289.8.8,0,0,1,.666.289,1.018,1.018,0,0,1,.26.752v8.3h13.134v-8.3a1.061,1.061,0,0,1,.26-.781.939.939,0,0,1,.694-.26.8.8,0,0,1,.666.289,1.1,1.1,0,0,1,.231.752V33.508a1.1,1.1,0,0,1-.231.752.8.8,0,0,1-.666.289.889.889,0,0,1-.694-.289,1.018,1.018,0,0,1-.26-.752V24.656H302.1v8.853a1.019,1.019,0,0,1-.26.752A.8.8,0,0,1,301.178,34.55Z" transform="translate(-146.058 -6.674)" fill="#595959"/>
  <path id="Path_21" data-name="Path 21" d="M349.265,34.824q-.926,0-.926-1.041V15.846h-6.828q-.983,0-.983-.752a.712.712,0,0,1,.232-.608,1.2,1.2,0,0,1,.752-.2h15.535q.984,0,.984.81,0,.752-.984.752H350.22V33.782a1.018,1.018,0,0,1-.26.752A.889.889,0,0,1,349.265,34.824Z" transform="translate(-165.65 -6.948)" fill="#595959"/>
</svg>
